HIERARCHY
ROOT pelvis
{
	OFFSET 0.000000 0.000000 0.000000
	CHANNELS 6 Xposition Yposition Zposition Zrotation Xrotation Yrotation
	JOINT lfemur
	{
		OFFSET 11.446000 0.000000 0.000000
		CHANNELS 3 Zrotation Xrotation Yrotation
		JOINT ltibia
		{
			OFFSET 0.000000 -42.030400 0.000000
			CHANNELS 3 Zrotation Xrotation Yrotation
			JOINT lfoot
			{
				OFFSET 0.000000 -39.930200 0.000000
				CHANNELS 3 Zrotation Xrotation Yrotation
				JOINT ltoes
				{
					OFFSET 0.000000 0.000000 11.775800
					CHANNELS 3 Zrotation Xrotation Yrotation
					End Site
					{
					    OFFSET 0.000000 0.000000 5.000000
					}
				}
			}
		}
	}
	JOINT rfemur
	{
		OFFSET -11.446000 0.000000 0.000000
		CHANNELS 3 Zrotation Xrotation Yrotation
		JOINT rtibia
		{
			OFFSET 0.000000 -42.030400 0.000000
			CHANNELS 3 Zrotation Xrotation Yrotation
			JOINT rfoot
			{
				OFFSET 0.000000 -39.930200 0.000000
				CHANNELS 3 Zrotation Xrotation Yrotation
				JOINT rtoes
				{
					OFFSET 0.000000 0.000000 11.775800
					CHANNELS 3 Zrotation Xrotation Yrotation
					End Site
					{
					    OFFSET 0.000000 0.000000 5.000000
					}
				}
			}
		}
	}
	JOINT thorax
	{
		OFFSET 0.000000 11.255600 -5.000000
		CHANNELS 3 Zrotation Xrotation Yrotation
		JOINT head
		{
			OFFSET 0.000000 43.799300 0.000000
			CHANNELS 3 Zrotation Xrotation Yrotation
			End Site
			{
			    OFFSET 0.000000 5.000000 0.000000
			}
		}
		JOINT lclavicle
		{
			OFFSET 0.000000 39.863000 0.000000
			CHANNELS 3 Zrotation Xrotation Yrotation
			JOINT lhumerus
			{
				OFFSET 17.380600 4.958300 0.000000
				CHANNELS 3 Zrotation Xrotation Yrotation
				JOINT lradius
				{
					OFFSET 0.000000 -27.561300 0.000000
					CHANNELS 3 Zrotation Xrotation Yrotation
					JOINT lhand
					{
						OFFSET 0.000000 -26.933000 0.000000
						CHANNELS 3 Zrotation Xrotation Yrotation
						End Site
						{
						    OFFSET 0.000000 -5.000000 0.000000
						}
					}
				}
			}
		}
		JOINT rclavicle
		{
			OFFSET 0.000000 39.863000 0.000000
			CHANNELS 3 Zrotation Xrotation Yrotation
			JOINT rhumerus
			{
				OFFSET -17.380600 4.958300 0.000000
				CHANNELS 3 Zrotation Xrotation Yrotation
				JOINT rradius
				{
					OFFSET 0.000000 -27.561300 0.000000
					CHANNELS 3 Zrotation Xrotation Yrotation
					JOINT rhand
					{
						OFFSET 0.000000 -26.933000 0.000000
						CHANNELS 3 Zrotation Xrotation Yrotation
						End Site
						{
						    OFFSET 0.000000 -5.000000 0.000000
						}
					}
				}
			}
		}
	}
}
MOTION
Frames:	12
Frame Time:	0.0333333
-15.7542 85.8121 52.1056 -3.13918 0.0836374 82.8614 -9.12919 -16.6953 -2.72692 0.118141 26.2377 -0.191723 3.13888 -1.05227 -0.466112 1.70958e-015 -5 -3.1927e-015 -0.289867 -9.12212 -2.99502 -1.17756 63.405 1.05842 -1.72932 3.31152 2.12025 9.3427e-016 -5 1.59635e-015 2.00715 7.48119 3.79654 -1.96835 -3.29132 -6.0842 3.97569e-016 -7.70291e-016 -0 4.77256 4.19115 -2.47352 10.6525 -16.8084 4.00856 -0.304836 -2.19076 -15.7924 3.97569e-016 -7.70291e-016 -0 -7.80065 -4.3584 15.4094 -18.7895 -27.0218 -8.60903 0.0577345 -0.952057 6.79409 
-12.9025 85.5624 52.3263 -2.99114 2.09348 83.7307 -11.0745 -14.6531 -2.09149 0.114807 25.8834 -0.203424 2.83896 -2.64813 -1.32152 1.39131e-016 -5 1.59635e-015 -3.41253 -15.4888 -3.64925 -1.57209 67.9018 1.48095 -1.27268 -1.47666 -1.38087 1.39131e-016 -5 1.59635e-015 -0.436246 7.03971 2.83841 -1.13042 -1.93627 -6.69252 -3.97569e-016 -1.81391e-015 -3.97569e-016 5.59673 2.67688 -4.87079 11.0813 -17.4077 4.22271 -0.296607 -2.16134 -15.5751 -3.97569e-016 -1.81391e-015 -3.97569e-016 -7.02338 -4.02673 15.6818 -18.9634 -27.2137 -8.71822 0.0150339 -0.471077 3.3571 
-9.99254 85.1681 52.7032 -2.74297 3.04087 84.7921 -12.0668 -12.4457 -1.68678 0.115361 25.8737 -0.144785 3.42897 -4.76376 -1.47501 -2.90229e-015 -5 3.1927e-015 -5.12424 -21.1578 -3.60681 -1.67763 68.89 1.61785 -1.34453 -5.36026 -3.88772 -3.71726e-015 -5 -1.59635e-015 -1.60954 7.0476 2.3191 -0.519878 -1.32235 -7.63983 -3.97569e-016 3.29237e-015 -0 5.99332 1.05855 -8.96039 12.2415 -18.996 4.81977 -0.196863 -1.76423 -12.6599 -3.97569e-016 3.29237e-015 -0 -6.82363 -3.6666 14.5764 -18.9547 -27.2042 -8.7128 0.0274284 -0.649208 4.62757 
-7.01119 84.7459 53.2935 -2.48468 3.01879 85.6976 -12.3084 -10.6183 -2.79707 0.127968 27.2741 -0.0931484 3.87271 -7.38307 0.215582 -2.78262e-016 -5 -3.1927e-015 -5.22701 -25.7627 -2.13349 -1.37516 65.9974 1.39945 -1.42934 -7.43616 -2.49706 -6.64933e-015 -5 -1.59635e-015 -1.31047 7.3855 0.980459 -0.234773 -1.27279 -7.41048 -7.95139e-016 2.5345e-015 1.19271e-015 5.80748 -0.421909 -11.6247 13.8855 -21.1605 5.70712 -0.115727 -1.35301 -9.67554 -7.95139e-016 2.5345e-015 1.19271e-015 -7.15339 -3.64971 17.3043 -19.1016 -27.3652 -8.80537 0.00128586 0.0427177 -0.300813 
-3.95266 84.4783 53.7594 -2.49495 3.68782 86.0673 -12.6594 -8.40391 -2.63538 0.128341 27.2043 -0.0580982 3.94681 -9.10278 -0.429186 -3.57812e-015 -5 -0 -5.78756 -29.7016 -0.460797 -0.938877 59.9201 1.05761 -1.35737 -7.99466 -1.47005 1.52071e-015 -5 -7.98176e-016 -2.39929 7.55645 1.32105 0.471804 -2.15532 -8.326 -2.17247e-032 -1.56543e-015 -7.95139e-016 7.07273 -2.24613 -16.8206 15.9349 -23.7171 6.87604 -0.0465692 -0.852801 -6.08143 -2.17247e-032 -1.56543e-015 -7.95139e-016 -6.53842 -3.68805 14.9672 -18.5409 -26.746 -8.45374 0.0243825 -0.610144 4.34906 
-1.02781 84.32 54.0058 -3.18231 3.69509 86.9997 -12.6696 -6.24436 -4.15948 0.11525 25.6043 -0.0118362 4.43697 -10.1225 2.61865 2.17672e-015 -5 -2.39453e-015 -7.02761 -32.9058 -2.33834 -0.563712 51.1665 0.733498 -1.26925 -6.45686 -0.605105 -5.61571e-015 -5 3.99088e-015 -1.97515 7.20569 0.766133 0.360893 -3.06215 -8.86672 -3.97569e-016 -6.38596e-015 1.19271e-015 7.32414 -3.79681 -19.078 18.0894 -26.2384 8.17343 -0.0366591 -0.754 -5.37559 -3.97569e-016 -6.38596e-015 1.19271e-015 -6.48323 -3.81203 12.4758 -17.8255 -25.9395 -8.01098 0.0879226 -1.1781 8.41696 
2.55139 84.4963 55.2828 -2.38255 3.69924 86.454 -11.6665 -1.12897 -1.57884 0.0891752 21.7925 0.0155597 4.15935 -10.3117 -0.703879 -4.11482e-015 -5 -1.59635e-015 -4.67231 -32.3758 2.40513 -0.295419 40.1661 0.488624 -1.28964 -2.92031 -3.86015 -4.77083e-015 -5 -0 -3.63822 7.87087 0.850159 1.71871 -3.53748 -8.83159 -9.93923e-017 2.01891e-016 -3.97569e-016 9.66291 -4.78376 -20.5845 20.2348 -28.5824 9.52823 -0.0189432 -0.532992 -3.79855 -9.93923e-017 2.01891e-016 -3.97569e-016 -5.51811 -3.73101 13.5794 -17.2673 -25.2974 -7.67067 0.0757702 -1.09217 7.79973 
5.82794 84.4736 55.9721 -2.39346 3.47492 86.917 -10.9669 2.59617 -0.83444 0.0729543 18.7499 0.0222153 4.01341 -10.3897 -1.67878 -9.3427e-016 -5 -1.59635e-015 -4.31085 -31.8429 2.60112 -0.135815 28.7179 0.304131 -0.920811 2.42308 -5.7258 -4.49257e-015 -5 3.1927e-015 -3.70602 7.97551 0.364883 2.33908 -4.0299 -8.89953 -0 -1.22687e-016 -0 10.9217 -6.02247 -23.1963 22.214 -30.6033 10.8282 -0.00122133 -0.0152791 -0.111815 -0 -1.22687e-016 -0 -5.04013 -3.60793 12.8674 -16.8916 -24.8588 -7.44403 0.0821096 -1.13804 8.12838 
9.11872 84.3554 56.4608 -2.2824 3.94096 87.5325 -11.2215 7.06206 -1.14152 0.0552484 14.4879 0.0360497 4.30149 -9.28383 -1.47085 -1.52071e-015 -5 7.98176e-016 -5.01287 -31.5281 3.33547 -0.0613961 20.7809 0.183819 1.83892 4.10399 -7.09226 -4.43292e-015 -5 1.59635e-015 -4.29574 7.98047 0.12357 2.0894 -4.76999 -8.86114 3.96016e-017 -2.01119e-015 -3.97569e-016 11.7156 -7.0676 -23.6212 23.488 -31.8346 11.6882 -0.00243304 -0.147534 -1.05212 3.96016e-017 -2.01119e-015 -3.97569e-016 -5.0166 -3.2603 11.8515 -16.494 -24.3889 -7.20632 0.109933 -1.31758 9.4223 
12.2454 84.2217 57.1122 -2.191 3.38725 88.3733 -10.1867 11.1231 -2.3459 0.0440578 10.7712 0.120223 5.48051 -8.14406 -1.50502 -2.98177e-016 -5 -0 -4.35298 -31.0595 3.31041 -0.038776 17.0592 0.0755214 1.79361 3.72758 -6.4804 5.49641e-015 -5 -7.98176e-016 -3.68444 8.01695 -1.14036 2.19455 -4.71873 -8.35898 2.48481e-017 9.87711e-016 -3.97569e-016 12.3819 -8.04359 -22.5053 23.9292 -32.2488 11.99 -0.0117116 -0.339865 -2.42055 2.48481e-017 9.87711e-016 -3.97569e-016 -4.52685 -3.55664 10.9273 -15.725 -23.4639 -6.75342 0.145815 -1.51875 10.8757 
15.3743 83.9912 57.3063 -1.74957 4.87345 87.8304 -11.6624 14.376 -2.71366 0.0401246 9.05532 0.0447629 5.42938 -6.59124 -1.21824 -1.54058e-015 -5 -0 -5.27549 -32.2572 3.09406 -0.0489905 20.8101 0.0461559 1.81391 4.5489 -3.4209 6.41072e-016 -5 7.98176e-016 -5.41308 8.11199 -0.522734 2.30796 -4.25602 -8.30046 -9.93923e-017 1.2424e-015 -3.97569e-016 12.9966 -8.86602 -22.3612 23.8888 -32.2111 11.9622 0.00305348 -0.138192 -0.985559 -9.93923e-017 1.2424e-015 -3.97569e-016 -4.77936 -3.40361 11.3903 -15.3039 -22.9479 -6.50922 0.142355 -1.50026 10.7429 
18.6368 84.0074 57.8665 -1.31963 5.42361 88.2758 -11.6836 17.3993 -3.34064 0.0390414 7.81558 0.00586942 5.99941 -4.69655 -2.10442 7.95139e-016 -5 -0 -5.26798 -31.7867 2.88351 -0.0782372 24.8453 0.15188 1.43597 5.63808 -1.80261 -6.95244e-014 -5 -3.1927e-015 -6.37989 8.05353 -1.01817 2.56374 -3.69625 -8.02914 -9.93923e-017 -3.75206e-015 -0 13.7762 -8.99042 -21.9621 23.5471 -31.8903 11.7284 0.00603063 0.128386 0.910991 -9.93923e-017 -3.75206e-015 -0 -4.08385 -3.03325 10.3869 -14.9562 -22.5169 -6.30963 0.160586 -1.59395 11.4214 
